# xmcd CD database file
#
# Track frame offsets:
#	150
#	11112
#	25389
#	37025
#	51373
#	62942
#	74246
#	84331
#	96726
#	106023
#	120038
#	139142
#	153070
#
# Disc length: 2194 seconds
#
# Revision: 1
# Processed by: cddbd v1.5.2PL0 Copyright (c) Steve Scherf et al.
# Submitted via: CDex 1.51
#
DISCID=b208900d
DTITLE=Rev. Barry Willie Black and The Luck, Texas Rangers - Songs Of My Life: In The Key Of: Willie Nelson - Christmas CD 6
DYEAR=2013
DGENRE=Christmas
TTITLE0=Pretty Paper
TTITLE1=White Christmas
TTITLE2=Winter Wonderland
TTITLE3=Rudolph, The Red-Nosed Reindeer
TTITLE4=Jingle Bells
TTITLE5=Here Comes Santa Claus
TTITLE6=Blue Christmas
TTITLE7=Santa Claus Is Coming To Town
TTITLE8=Frosty The Snowman
TTITLE9=Silent Night
TTITLE10=Oh, Little Town Of Bethlehem
TTITLE11=Away In A Manger
TTITLE12=Christmas Blues
EXTD=YEAR: 2013
EXTT0=
EXTT1=
EXTT2=
EXTT3=
EXTT4=
EXTT5=
EXTT6=
EXTT7=
EXTT8=
EXTT9=
EXTT10=
EXTT11=
EXTT12=
PLAYORDER=
